<?xml version="1.0" encoding="UTF-8" standalone="no" ?>
<!DOCTYPE svg PUBLIC "-//W3C//DTD SVG 1.1//EN" "http://www.w3.org/Graphics/SVG/1.1/DTD/svg11.dtd">
<svg xmlns="http://www.w3.org/2000/svg" xmlns:xlink="http://www.w3.org/1999/xlink" version="1.1" width="400" height="400" viewBox="0 0 400 400" xml:space="preserve">
<desc>Created with Fabric.js 3.6.2</desc>
<defs>
</defs>
<g transform="matrix(0.39 0 0 0.39 200 200)" id="Layer_1"  >
<path style="stroke: none; stroke-width: 1; stroke-dasharray: none; stroke-linecap: butt; stroke-dashoffset: 0; stroke-linejoin: miter; stroke-miterlimit: 4; fill: rgb(0,0,0); fill-rule: nonzero; opacity: 1;"  transform=" translate(-256, -256)" d="M 400 113.3 h -80 v -20 c 0 -16.2 -13.1 -29.3 -29.3 -29.3 h -69.5 C 205.1 64 192 77.1 192 93.3 v 20 h -80 V 128 h 21.1 l 23.6 290.7 c 0 16.2 13.1 29.3 29.3 29.3 h 141 c 16.2 0 29.3 -13.1 29.3 -29.3 L 379.6 128 H 400 V 113.3 z M 206.6 93.3 c 0 -8.1 6.6 -14.7 14.6 -14.7 h 69.5 c 8.1 0 14.6 6.6 14.6 14.7 v 20 h -98.7 V 93.3 z M 341.6 417.9 l 0 0.4 v 0.4 c 0 8.1 -6.6 14.7 -14.6 14.7 H 186 c -8.1 0 -14.6 -6.6 -14.6 -14.7 v -0.4 l 0 -0.4 L 147.7 128 h 217.2 L 341.6 417.9 z" stroke-linecap="round" />
</g>
<g transform="matrix(0.39 0 0 0.39 200 209.57)" id="Layer_1"  >
<rect style="stroke: none; stroke-width: 1; stroke-dasharray: none; stroke-linecap: butt; stroke-dashoffset: 0; stroke-linejoin: miter; stroke-miterlimit: 4; fill: rgb(0,0,0); fill-rule: nonzero; opacity: 1;"  x="-7" y="-120.5" rx="0" ry="0" width="14" height="241" />
</g>
<g transform="matrix(0.39 0 0 0.39 220.06 209.57)" id="Layer_1"  >
<polygon style="stroke: none; stroke-width: 1; stroke-dasharray: none; stroke-linecap: butt; stroke-dashoffset: 0; stroke-linejoin: miter; stroke-miterlimit: 4; fill: rgb(0,0,0); fill-rule: nonzero; opacity: 1;"  points="12.65,-120.5 -1.95,-120.5 -12.65,120.5 1.95,120.5 " />
</g>
<g transform="matrix(0.39 0 0 0.39 179.94 209.57)" id="Layer_1"  >
<polygon style="stroke: none; stroke-width: 1; stroke-dasharray: none; stroke-linecap: butt; stroke-dashoffset: 0; stroke-linejoin: miter; stroke-miterlimit: 4; fill: rgb(0,0,0); fill-rule: nonzero; opacity: 1;"  points="1.85,-120.5 -12.65,-120.5 -1.95,120.5 12.65,120.5 " />
</g>
</svg>